<svg width="28" height="25" viewBox="0 0 28 25" fill="none" xmlns="http://www.w3.org/2000/svg">
<path d="M0.666676 0.833374H3.33334C4.06668 0.833374 4.66668 1.43337 4.66668 2.16671V14.1667C4.66668 14.9 4.06668 15.5 3.33334 15.5H0.666676V0.833374ZM27.1067 10.3267C27.2533 10.66 27.3333 11.02 27.3333 11.3934V12.8334C27.3333 14.3 26.1333 15.5 24.6667 15.5H17.3333L18.56 21.7C18.6267 21.9934 18.5867 22.3134 18.4533 22.58C18.1467 23.18 17.76 23.7267 17.28 24.2067L16.6667 24.8334L8.12001 16.2867C7.61334 15.78 7.33334 15.1 7.33334 14.3934V3.95337C7.33334 2.23337 8.73334 0.833374 10.4533 0.833374H21.2533C22.2 0.833374 23.0667 1.32671 23.5467 2.12671L27.1067 10.3267Z" fill="#3A3541" fill-opacity="0.54"/>
</svg>
