<svg width="28" height="25" viewBox="0 0 28 25" fill="none" xmlns="http://www.w3.org/2000/svg">
<path d="M0.666687 24.1666H3.33335C4.06669 24.1666 4.66669 23.5666 4.66669 22.8333V10.8333C4.66669 10.1 4.06669 9.49996 3.33335 9.49996H0.666687V24.1666ZM27.1067 14.6733C27.2534 14.34 27.3334 13.98 27.3334 13.6066V12.1666C27.3334 10.7 26.1334 9.49996 24.6667 9.49996H17.3334L18.56 3.29996C18.6267 3.00663 18.5867 2.68663 18.4534 2.41996C18.1467 1.81996 17.76 1.27329 17.28 0.793293L16.6667 0.166626L8.12002 8.71329C7.61335 9.21996 7.33335 9.89996 7.33335 10.6066V21.06C7.33335 22.7666 8.73335 24.1666 10.4534 24.1666H21.2667C22.2 24.1666 23.08 23.6733 23.56 22.8733L27.1067 14.6733Z" fill="#219653"/>
</svg>
